<svg width="26px" height="26px" viewBox="0 0 26 26" version="1.1" xmlns="http://www.w3.org/2000/svg" xmlns:xlink="http://www.w3.org/1999/xlink"> <g id="Page-1" stroke="none" stroke-width="1" fill="none" fill-rule="evenodd"> <g id="Group" transform="translate(13.100000, 13.100000) scale(-1, 1) rotate(-180.000000) translate(-13.100000, -13.100000) translate(0.600000, 0.600000)" fill-rule="nonzero" fill="#000000"> <path d="M12.4453165,24.9962479 C12.4034997,24.9924959 12.371333,24.9842413 12.3359496,24.9677323 C12.2700077,24.9377157 12.2458827,24.905448 12.2297993,24.8274051 C12.2104992,24.7336035 11.8751608,22.3397869 11.7408646,21.3387363 C11.6387352,20.5778178 11.504439,19.5159838 11.4344763,18.9149032 C11.4183929,18.7790785 11.4039179,18.6605133 11.4023096,18.6522587 C11.3990929,18.6387513 11.385422,18.6349992 11.2840968,18.6192406 C9.999035,18.4278853 8.76302753,17.910851 7.74012481,17.1371754 C7.45062403,16.9180549 7.0622105,16.5706138 6.82900154,16.3207264 C6.02081189,15.4555005 5.46915208,14.4739607 5.17402213,13.3723548 C5.0509843,12.9168543 4.98423829,12.4966231 4.95609238,12.0111061 C4.94563819,11.8235029 4.9504632,11.3379859 4.96493824,11.1668918 C5.0614385,10.009005 5.42572697,8.95242383 6.06504117,7.97388564 C6.50331318,7.30301666 7.09116058,6.67942368 7.75701235,6.17814798 C7.98700463,6.00555305 8.37783067,5.74816149 8.39069738,5.76166892 C8.39632656,5.76692181 8.52821024,5.9552754 9.02759907,6.67191956 C9.11766598,6.80174096 9.32514153,7.0989044 9.4883878,7.33228276 C9.6508299,7.56566111 9.78432192,7.76001801 9.78512609,7.76452049 C9.78593026,7.76902296 9.74974267,7.79603782 9.70551338,7.82380309 C9.4497877,7.98664265 9.24392048,8.14422933 9.02277406,8.34533994 C8.26444287,9.03722047 7.76827072,9.92495873 7.59135358,10.9079994 C7.42810731,11.8152484 7.56562017,12.7637701 7.98378796,13.6132373 C8.28535126,14.2248237 8.75900669,14.7996398 9.31951235,15.2341288 C9.78834277,15.5973285 10.3335692,15.881735 10.9077458,16.061834 C11.0774254,16.1151133 11.1248713,16.1278703 11.1248713,16.1196158 C11.1248713,16.1158637 11.1103963,15.9680324 11.0927046,15.7916854 C11.0500836,15.3586973 10.9881626,14.6900795 10.9479542,14.2285757 C10.8763832,13.4001201 10.8418039,13.1352244 10.7702329,12.863575 C10.6528242,12.4193306 10.4284611,12.1559358 10.0722144,12.0448747 C10.0014475,12.0223623 9.81729285,11.9900946 9.61946732,11.9653309 C9.55674215,11.9578268 9.51653371,11.9495723 9.51733788,11.9443194 C9.51814205,11.9398169 9.6484174,11.8212517 9.80844699,11.6809245 C10.2853191,11.2614438 10.5852741,10.9582771 10.8458248,10.6318475 C11.3918554,9.94897193 11.7682064,9.17829806 12.0215196,8.2252739 C12.2434701,7.38856371 12.3496204,6.50682876 12.4034997,5.05102807 C12.4099331,4.86567612 12.4437082,3.61398769 12.4437082,3.5374456 L12.4437082,3.51268198 L12.5,3.51268198 L12.5562918,3.51268198 L12.5562918,3.54119766 C12.5562918,3.61924058 12.5892627,4.85892241 12.5965003,5.047276 C12.623842,5.79543749 12.6608338,6.33123218 12.7219506,6.83701036 C12.8988677,8.31907549 13.300148,9.45820201 13.9716289,10.3902146 C14.2836464,10.8224523 14.6230057,11.1811496 15.196378,11.6846766 C15.4545162,11.9113012 15.4987455,11.9548252 15.4762288,11.9548252 C15.4561245,11.9548252 15.2148739,11.9878433 15.1143528,12.003602 C14.8755147,12.0426234 14.7227226,12.110911 14.5763639,12.2429836 C14.3077715,12.4861174 14.1847337,12.8493171 14.1043168,13.6395017 C14.0978834,13.705538 14.0777792,13.9284106 14.0600875,14.1347741 C14.015054,14.6623143 13.9611747,15.2446345 13.9153371,15.7173946 C13.8936245,15.9402671 13.8759328,16.1233679 13.8775412,16.1241183 C13.881562,16.1286207 14.1541752,16.0438241 14.2651505,16.0040522 C15.2526698,15.6476062 16.0648803,15.0465256 16.6326235,14.2518385 C17.0773289,13.6312472 17.358788,12.9040973 17.444834,12.1536845 C17.4834341,11.8257542 17.4786091,11.3822602 17.4335757,11.0603332 C17.311342,10.1861024 16.9309701,9.37265496 16.3294519,8.70103557 C16.0383428,8.37535645 15.6579709,8.05342939 15.2944866,7.8245535 C15.2502573,7.79603782 15.2140697,7.76977338 15.2148739,7.7652709 C15.2156781,7.75401471 16.6117151,5.75641603 16.6181485,5.75641603 C16.6286027,5.75641603 16.9221243,5.94777127 17.0556163,6.04157287 C17.5107759,6.36049827 17.954677,6.75746661 18.3229864,7.17469608 C19.245368,8.21852019 19.8211529,9.4694582 19.99807,10.8141978 C20.0398868,11.1278703 20.0463201,11.2479364 20.0471243,11.6546601 C20.0471243,12.041873 20.0431034,12.1281705 20.0101325,12.4125769 C19.8798572,13.5434489 19.4673186,14.6105358 18.7966418,15.5560558 C17.9474395,16.7529641 16.7403821,17.6707189 15.3081575,18.207264 C14.805552,18.3956176 14.2699756,18.5351944 13.7464617,18.6147381 C13.6732823,18.6259943 13.6105571,18.6380009 13.6057321,18.641753 C13.6017113,18.645505 13.5832154,18.7775777 13.5639153,18.9359148 C13.4553525,19.845415 13.3106022,20.9770374 13.1787185,21.9390665 C13.1031266,22.4988744 12.7838716,24.7666216 12.7726132,24.8311571 C12.7613549,24.8986943 12.7396423,24.9332133 12.6946089,24.9594777 C12.6351004,24.9939967 12.5554876,25.0060033 12.4453165,24.9962479 Z" id="Shape"></path> <path d="M7.75942486,22.4613537 C7.20696089,22.2489869 6.59096758,21.9623293 6.10444545,21.6906799 C5.00434251,21.0753414 4.04175244,20.3369353 3.19174601,19.4552004 C3.02849974,19.2863575 2.73658646,18.9614288 2.7381948,18.950923 C2.7381948,18.9471709 2.82826171,18.8788834 2.9368245,18.7978388 C3.04619146,18.7167942 3.45792589,18.4098754 3.85116444,18.1149632 C4.24520715,17.820051 4.58215389,17.5679124 4.60064977,17.5544049 L4.63362069,17.5303917 L4.72449177,17.6331983 C5.71442357,18.7580669 6.98340196,19.6585622 8.40678075,20.249137 C8.46628924,20.2731502 8.59334792,20.3234279 8.68823984,20.3601981 C8.79519429,20.4007204 8.86113613,20.4299865 8.86113613,20.4367402 C8.86113613,20.4419931 8.66572311,20.9185052 8.42688497,21.4948222 C8.1116508,22.2557407 7.98941714,22.5423983 7.98057128,22.5423983 C7.97413793,22.5416479 7.874421,22.5056281 7.75942486,22.4613537 Z" id="Shape"></path> <path d="M17.0041495,22.5266397 C17.0001287,22.5168843 16.8996076,22.274501 16.7797864,21.9878433 C16.2128474,20.6250938 16.1340389,20.4329881 16.139668,20.4277353 C16.1436889,20.4239832 16.1959599,20.403722 16.2554683,20.3819601 C17.7488098,19.8341588 19.1890762,18.8578718 20.2192164,17.6962329 C20.2795291,17.6279454 20.3374292,17.5634099 20.3486876,17.5514033 L20.3687918,17.5303917 L21.3152985,18.2380309 C21.8363999,18.6267447 22.261001,18.9486718 22.2601969,18.9539247 C22.2577844,18.9659313 21.9827586,19.2728501 21.8444416,19.4176797 C21.4166238,19.8664265 20.9284933,20.3039172 20.4331253,20.6828756 C19.5614063,21.3499925 18.6028371,21.9015459 17.578326,22.3270299 C17.4215131,22.3923158 17.0306871,22.5431487 17.0186245,22.5431487 C17.0146037,22.5431487 17.0081704,22.5356446 17.0041495,22.5266397 Z" id="Shape"></path> <path d="M1.73378796,17.596428 C1.7249421,17.5829206 1.67669197,17.5041273 1.62602934,17.4215819 C1.23037828,16.7769773 0.89262738,16.0678373 0.634489192,15.3406874 C0.592672414,15.2228726 0.559701493,15.1245685 0.562113999,15.1223173 C0.564526505,15.1208164 0.702843541,15.0795437 0.870110654,15.0307669 C1.37110782,14.8859373 2.32163536,14.6097854 2.60068194,14.5287408 C2.74462815,14.4867177 2.86686181,14.4514483 2.87249099,14.4514483 C2.87972851,14.4506979 2.9006369,14.4994747 2.93360782,14.596278 C3.12821668,15.1568363 3.42093412,15.7759268 3.73455996,16.2877082 C3.79246011,16.3815098 3.8391019,16.4603032 3.8391019,16.4633048 C3.8391019,16.4678073 1.77801724,17.6114363 1.75630468,17.6189404 C1.75308801,17.6204412 1.74263381,17.6099355 1.73378796,17.596428 Z" id="Shape"></path> <path d="M22.8416109,17.3983191 C22.3382012,17.1184151 22.1628924,17.0223623 21.6096243,16.7161939 C21.3627445,16.5796188 21.1608981,16.4663065 21.1608981,16.4633048 C21.1608981,16.4603032 21.2075399,16.3815098 21.26544,16.2877082 C21.5790659,15.7759268 21.8717833,15.1568363 22.0663922,14.596278 C22.0993631,14.4994747 22.1202715,14.4506979 22.127509,14.4514483 C22.1331382,14.4514483 22.6502187,14.6007804 23.2774704,14.7831307 C23.9039179,14.965481 24.4201943,15.1140627 24.4242151,15.1140627 C24.4290401,15.1140627 24.4346693,15.1170644 24.4370818,15.1208164 C24.442711,15.129071 24.3068065,15.5117815 24.2263896,15.7151433 C24.0237391,16.2239232 23.7865093,16.7139427 23.5114835,17.192706 C23.4037249,17.3795588 23.2573662,17.6151884 23.246912,17.6174396 C23.2428911,17.61819 23.0603448,17.5198859 22.8416109,17.3983191 Z" id="Shape"></path> <path d="M0.145554555,13.4579018 C0.0442292846,12.8560708 0,12.3067687 0,11.650908 C0.000804168811,11.2809545 0.0160833762,10.881735 0.0313625836,10.8682275 C0.0337750901,10.8659763 0.0530751415,10.8644755 0.0739835306,10.8659763 C0.280654915,10.8772325 2.45030237,11.0160588 2.45191071,11.0183101 C2.45351904,11.0198109 2.45110654,11.0753414 2.44547735,11.1406273 C2.43261065,11.3064686 2.43341482,12.0403722 2.44628152,12.2174696 C2.47040659,12.5476512 2.50418168,12.829056 2.55162764,13.1104608 C2.56449434,13.1862524 2.5733402,13.2515383 2.57173186,13.25454 C2.56931935,13.2575416 2.56127766,13.2605433 2.55323598,13.2605433 C2.54599846,13.2605433 2.34978127,13.2905598 2.11737648,13.3280804 C0.476067936,13.5899745 0.185762995,13.6357497 0.180937983,13.6357497 C0.177721307,13.6357497 0.161637931,13.5554555 0.145554555,13.4579018 Z" id="Shape"></path> <path d="M24.4258235,13.5749662 C24.0173057,13.5089299 22.5818644,13.2793036 22.4877766,13.2650458 C22.4363098,13.2567912 22.427464,13.2537896 22.4290723,13.2410326 C22.4298765,13.2335284 22.4411348,13.1577368 22.4548057,13.0729401 C22.5352226,12.5671619 22.5601518,12.2775026 22.565781,11.770974 C22.5681935,11.5053279 22.5665852,11.3597479 22.5577393,11.2156686 C22.5505018,11.1083596 22.546481,11.0190605 22.5480893,11.0183101 C22.5496976,11.0160588 24.4692486,10.8937416 24.9404915,10.8652259 L24.9766791,10.8629746 L24.9871333,11.0318175 C25.0016083,11.2576917 25.0040208,12.0178598 24.99035,12.2362299 C24.9630082,12.687228 24.9211915,13.0631848 24.8544454,13.4579018 C24.8262995,13.6237431 24.823887,13.6357497 24.8078037,13.6349992 C24.7989578,13.6342488 24.6268657,13.607234 24.4258235,13.5749662 Z" id="Shape"></path> <path d="M2.58057771,9.9467207 C2.57173186,9.94371905 0.262159032,9.54149782 0.228383942,9.53699535 C0.21632141,9.53549452 0.208279722,9.53024163 0.209083891,9.52348792 C0.214713073,9.4574516 0.340163407,8.93366351 0.40610525,8.70178598 C0.566939012,8.13222272 0.807385486,7.48611736 1.03496526,7.00810446 L1.05587365,6.96533093 L1.15880726,7.00735404 C1.91874678,7.3172745 3.27296706,7.87408074 3.27698791,7.87858322 C3.28020458,7.88158487 3.25045033,7.95287408 3.21185023,8.03767072 C2.9754246,8.55470509 2.76634071,9.18580219 2.64089038,9.76286958 C2.61837365,9.86342488 2.60068194,9.9467207 2.60068194,9.94822152 C2.60068194,9.95197359 2.59183608,9.95122317 2.58057771,9.9467207 Z" id="Shape"></path> <path d="M22.4033389,9.94296863 C22.4009264,9.94071739 22.384843,9.87092901 22.3663471,9.78913402 C22.2312468,9.17304517 22.0318129,8.57046376 21.7881498,8.03767072 C21.7495497,7.95287408 21.7205996,7.88158487 21.7230121,7.87858322 C21.7286413,7.87257992 23.9159804,6.9750863 23.9344763,6.97058382 C23.9481472,6.96758217 24.0060473,7.08989944 24.1242602,7.36605133 C24.3823984,7.9716344 24.5930906,8.62224223 24.7281909,9.23082695 C24.7482952,9.32387813 24.7716161,9.4281855 24.7796577,9.4634549 C24.7876994,9.4987243 24.7925244,9.52949122 24.7901119,9.53324328 C24.7885036,9.53624493 24.7788536,9.53849617 24.7692036,9.53849617 C24.7595535,9.53924659 24.2239771,9.63079694 23.5790337,9.74335885 C22.9340903,9.85592076 22.4049472,9.94597028 22.4033389,9.94296863 Z" id="Shape"></path> <path d="M3.83106022,6.81524839 C3.81980185,6.80774426 3.35660062,6.54735104 2.80172414,6.23668017 C2.24684766,5.92600931 1.7892756,5.66936815 1.78605893,5.6663665 C1.78203809,5.66336485 1.82305069,5.59357647 1.87773417,5.51178148 C2.54921513,4.49572265 3.4008299,3.57046376 4.38191585,2.78928411 C6.09801209,1.42203212 8.20734689,0.50352694 10.4212236,0.159087498 C11.1514089,0.0450247636 11.7416688,0 12.5,0 C12.9680262,0 13.2398353,0.0112561909 13.6499614,0.0465255891 C15.010615,0.163589974 16.3238227,0.483265796 17.5855636,1.00405223 C17.9619146,1.16013808 18.5272452,1.4325379 18.8810795,1.62914603 C19.7640569,2.11991595 20.5529465,2.6887288 21.2807192,3.35884737 C21.813079,3.84961729 22.2585885,4.33663515 22.6880147,4.89719346 C22.8456318,5.10355696 23.2083119,5.62284256 23.2179619,5.65661114 C23.2195703,5.66111361 22.7595857,5.92300765 22.1966675,6.238181 C21.6337494,6.55410476 21.1641148,6.81674921 21.1536606,6.82275251 C21.1407939,6.82950623 21.1335564,6.83025664 21.1311438,6.82500375 C21.1295355,6.82050128 21.1110396,6.79198559 21.0893271,6.76121867 C21.0676145,6.73045175 21.0274061,6.67191956 21.0000643,6.63064686 C20.9083891,6.49482215 20.7620304,6.29221072 20.684026,6.19165541 C20.3462751,5.75866727 20.0591868,5.44274351 19.67399,5.07804292 C19.3828809,4.80339187 19.1440427,4.59852919 18.8698212,4.39066487 C18.0077522,3.73480414 17.058833,3.22602431 16.0262802,2.8658262 C15.1215903,2.54990245 14.1935795,2.36079844 13.2237519,2.29326129 C13.0942808,2.28425634 12.557096,2.26324478 12.5,2.26549602 C11.8944609,2.28275552 11.7778564,2.28950923 11.4586014,2.32027615 C9.83820124,2.476362 8.25961786,3.00840462 6.90459341,3.85562059 C6.80889732,3.91565361 6.71480957,3.97568663 6.69631369,3.98844364 C6.67781781,4.00120066 6.64725939,4.02221222 6.62795934,4.03421882 C6.60946346,4.04697584 6.52100489,4.10775927 6.43174215,4.17079394 C6.07871204,4.41767972 5.77714874,4.66231427 5.42813948,4.98349092 C5.13944287,5.24913703 4.94885486,5.44424433 4.65292074,5.77742759 C4.43820767,6.0198109 4.07874421,6.49707339 3.89941457,6.77847816 C3.88172285,6.80624343 3.86403114,6.82950623 3.85920612,6.82950623 C3.85518528,6.82875582 3.84231858,6.82275251 3.83106022,6.81524839 Z" id="Shape"></path> </g> </g> </svg>
