<svg width="25px" height="25px" viewBox="0 0 730 1051" version="1.1" xmlns="http://www.w3.org/2000/svg" xmlns:xlink="http://www.w3.org/1999/xlink" xmlns:sketch="http://www.bohemiancoding.com/sketch/ns" > <g id="Page-1" stroke-width="1" fill="#DB4C2A" fill-rule="evenodd" sketch:type="MSPage" > <g id="Group" sketch:type="MSLayerGroup" transform="translate(364.800000, 525.550000) scale(1, -1) translate(-364.800000, -525.550000) translate(10.100000, 10.100000)" stroke="" stroke-width="20" > <path class="stroke: 'white'" id="Shape" d="M234.9 1030.6C234.9 1030.4 238.7 1024.9 243.3 1018.5 280.2 966.8 298.4 915.7 294.9 873.2 291.4 830.5 271.4 796.2 191.5 695.7 145.6 638 137 627 119.4 603.5 24.6 476.8-9.8 388.2 2.4 302 10.3 246 29.3 199.1 59.6 161 70.2 147.7 97.1 121.2 112 109.3 160.3 70.9 221.2 39.1 292.4 15.1 309.9 9.2 341.4 0 344 0 346.4 0 329 35 318.7 51 310.8 63.3 299.2 79.1 290 89.9 286.9 93.5 283.1 98.3 281.4 100.5 279.8 102.6 269.9 113.2 259.4 124 246.2 137.5 238.4 146.4 234 153 210.9 187.6 198.9 231.8 196.4 291.5 194.1 346.1 209.2 391.9 243.6 434.5 253 446.1 272.7 465.6 284.9 475.3 297.9 485.7 319.4 499.7 330 504.8 330.4 505 331 500.2 331.3 494.3 334.9 437.9 336.7 428.7 348.2 406.6 353.8 395.7 361.2 388.2 382.4 371.7 408.8 351.2 421.9 340 434.9 327 470.9 291 490 253.5 494.8 209.8 500.6 157.5 480.6 95 442.2 44.8 433.5 33.4 415.2 14.1 406.1 6.5 402.7 3.8 400.1 1.4 400.3 1.3 400.8.7 421 8 436.9 14.4 489.4 35.8 539.4 65.3 583 100.7 601.8 116 634.6 148.8 648.3 166 676.8 201.8 695.8 237.7 704.3 271.9 709.1 291.2 709.4 294.5 709.4 334.5 709.4 372.9 708.8 382.7 704.8 414.5 695.2 490.5 669.7 566.3 633.7 626 625.8 639 613.2 657 612 657 611.5 657 610.8 653.8 610.5 650 609.1 635.9 602 611.3 593.5 591 588.4 578.8 576.6 558.7 567.4 546.2 557.9 533.3 534.7 509.9 522.7 501 511.9 492.9 495 482.6 494.1 483.4 493.8 483.8 495 488.2 496.8 493.3 515.8 545.9 524 596.4 522.6 651.5 522.3 664.1 521.3 680.6 520.4 688 513.3 749.4 494.8 804.7 464 856.2 414.3 939.6 338.2 1000.4 251 1026.4 234.9 1031.2 234.9 1031.2 234.9 1030.6L234.9 1030.6Z" sketch:type="MSShapeGroup" ></path> </g> </g> </svg>
